<svg aria-hidden="true" style="position:absolute;overflow:hidden" xmlns="http://www.w3.org/2000/svg"><defs><symbol id="icon-logo" viewBox="0 0 131 40"><path d="M8.1 39.5H0V0h9.05c1.867 0 3.383.1 4.55.3 1.2.167 2.133.533 2.8 1.1.667.567 1.117 1.383 1.35 2.45.267 1.033.4 2.433.4 4.2v4.1c0 1.033-.117 1.883-.35 2.55-.233.667-.533 1.2-.9 1.6-.333.4-.7.7-1.1.9-.4.167-.767.283-1.1.35v.2c.5.133.95.333 1.35.6.433.233.8.6 1.1 1.1.3.5.533 1.167.7 2 .2.8.3 1.833.3 3.1V39.5H10V22c0-.433-.05-.717-.15-.85-.1-.167-.367-.25-.8-.25H8.1v18.6Zm0-24.95h.95c.433 0 .7-.067.8-.2.1-.167.15-.467.15-.9v-5.4c0-.433-.05-.717-.15-.85-.1-.167-.367-.25-.8-.25H8.1v7.6Zm29.027 19.1c0 1.4-.116 2.517-.35 3.35-.2.833-.6 1.483-1.2 1.95-.566.433-1.366.717-2.4.85-1 .133-2.316.2-3.95.2-1.6 0-2.916-.067-3.95-.2-1.033-.133-1.833-.417-2.4-.85-.566-.467-.966-1.117-1.2-1.95-.2-.833-.3-1.95-.3-3.35V15.4c0-1.4.1-2.517.3-3.35.234-.833.634-1.467 1.2-1.9.567-.467 1.367-.767 2.4-.9 1.034-.133 2.35-.2 3.95-.2 1.634 0 2.95.067 3.95.2 1.034.133 1.834.433 2.4.9.6.433 1 1.067 1.2 1.9.234.833.35 1.95.35 3.35v18.25Zm-8.8-1.4c0 .433.05.733.15.9.1.133.35.2.75.2.434 0 .7-.067.8-.2.1-.167.15-.467.15-.9V16.8c0-.433-.05-.717-.15-.85-.1-.167-.366-.25-.8-.25-.4 0-.65.083-.75.25-.1.133-.15.417-.15.85v15.45ZM47.873 0v10.9c.433-.6.966-1.017 1.6-1.25.666-.233 1.483-.35 2.45-.35.966 0 1.75.117 2.35.35.6.2 1.05.533 1.35 1 .333.467.55 1.1.65 1.9.133.767.2 1.717.2 2.85v18.25c0 1.167-.067 2.15-.2 2.95-.1.767-.317 1.383-.65 1.85-.334.467-.817.8-1.45 1-.634.2-1.45.3-2.45.3-1.134 0-2.05-.117-2.75-.35-.7-.267-1.234-.683-1.6-1.25v1.35h-6.65V0h7.15Zm1.65 16.8c0-.4-.05-.683-.15-.85-.067-.167-.284-.25-.65-.25-.334 0-.584.067-.75.2-.134.1-.234.267-.3.5v16.25c.066.233.166.417.3.55.166.1.416.15.75.15.366 0 .583-.083.65-.25.1-.167.15-.45.15-.85V16.8ZM67.259 5.2h-7.1V0h7.1v5.2Zm0 34.3h-7.1V9.55h7.1V39.5Zm20.33 0h-7.2V16.8c0-.4-.05-.683-.15-.85-.068-.167-.284-.25-.65-.25-.334 0-.584.067-.75.2-.134.1-.25.267-.35.5v23.1h-7.15V9.55h6.65v1.35c.366-.567.9-.967 1.6-1.2.7-.267 1.616-.4 2.75-.4 1 0 1.832.1 2.5.3.7.2 1.25.533 1.65 1 .4.467.682 1.1.85 1.9.166.767.25 1.733.25 2.9v24.1Zm11.068 0h-7.25v-7.05h7.25v7.05ZM130.716 0l-4.1 39.5h-10.2l-1.35-28.65h-.2l-1.65 28.65h-10.35L99.816 0h8.15l.85 27.7h.2l1.2-27.7h10l.85 27.7h.2l1.25-27.7h8.2Z" fill="#fff"/></symbol><symbol id="icon-twitter" viewBox="0 0 20 16"><path fill-rule="evenodd" clip-rule="evenodd" d="M20 1.872c-.69.296-1.478.493-2.364.591.788-.493 1.477-1.28 1.773-2.167-.788.492-1.675.788-2.562.985C16.157.493 15.074 0 13.892 0c-2.266 0-4.04 1.773-4.04 3.94 0 .296 0 .592.099.888C6.6 4.63 3.645 3.054 1.576.69a3.552 3.552 0 0 0-.59 1.97c0 1.38.689 2.562 1.773 3.35-.69 0-1.281-.197-1.872-.493v.099c0 1.97 1.379 3.547 3.25 3.94-.295.1-.689.1-1.083.1-.295 0-.492 0-.788-.1a3.933 3.933 0 0 0 3.744 2.76C4.63 13.398 2.857 13.99.985 13.99c-.295 0-.69 0-.985-.098 1.773 1.182 3.94 1.773 6.207 1.773 7.39 0 11.527-6.108 11.527-11.33v-.493C18.818 3.35 19.507 2.66 20 1.872Z" fill="#26A7DE"/></symbol><symbol id="icon-ball" viewBox="0 0 20 20"><path fill-rule="evenodd" clip-rule="evenodd" d="M10 20C4.486 20 0 15.514 0 10S4.486 0 10 0s10 4.486 10 10-4.486 10-10 10Zm8.433-8.631c-.292-.092-2.643-.794-5.32-.365 1.117 3.07 1.572 5.57 1.66 6.09a8.556 8.556 0 0 0 3.66-5.725Zm-5.097 6.507c-.127-.75-.623-3.361-1.822-6.478l-.056.02c-4.818 1.678-6.547 5.02-6.7 5.334a8.53 8.53 0 0 0 8.578 1.124Zm-9.682-2.152c.194-.331 2.538-4.212 6.943-5.636.112-.036.224-.07.337-.102a28.64 28.64 0 0 0-.693-1.45C5.976 9.814 1.837 9.76 1.463 9.753a8.508 8.508 0 0 0 2.191 5.972ZM1.64 8.264c.382.005 3.901.02 7.896-1.041a54.521 54.521 0 0 0-3.166-4.94 8.573 8.573 0 0 0-4.73 5.98ZM8 1.709a45.595 45.595 0 0 1 3.186 5c3.038-1.138 4.324-2.866 4.477-3.085a8.531 8.531 0 0 0-7.664-1.915Zm8.613 2.903c-.18.243-1.612 2.078-4.77 3.367a26.397 26.397 0 0 1 .75 1.678c2.843-.357 5.667.216 5.949.275a8.5 8.5 0 0 0-1.93-5.32Z" fill="#E94B88"/></symbol><symbol id="icon-instagram" viewBox="0 0 18 18"><path d="M16.65 0H1.35C.63 0 0 .543 0 1.266v15.468C0 17.457.63 18 1.35 18h15.3c.72 0 1.35-.543 1.35-1.266V1.266C18 .633 17.37 0 16.65 0ZM5.31 15.467h-2.7V6.874h2.7v8.593ZM3.96 5.608c-.9 0-1.53-.724-1.53-1.538 0-.814.72-1.537 1.53-1.537s1.53.723 1.53 1.537c.09.905-.63 1.538-1.53 1.538Zm11.34 9.86h-2.7v-4.161c0-.995 0-2.262-1.35-2.262s-1.62 1.086-1.62 2.262v4.25h-2.7V6.966h2.52V8.14c.36-.724 1.26-1.357 2.52-1.357 2.7 0 3.24 1.809 3.24 4.07v4.613h.09Z" fill="#0077B5"/></symbol></defs></svg>