<svg fill="none" xmlns="http://www.w3.org/2000/svg" viewBox="0 0 20 20"><path fill-rule="evenodd" clip-rule="evenodd" d="M10 20C4.486 20 0 15.514 0 10S4.486 0 10 0s10 4.486 10 10-4.486 10-10 10Zm8.433-8.631c-.292-.092-2.643-.794-5.32-.365 1.117 3.07 1.572 5.57 1.66 6.09a8.556 8.556 0 0 0 3.66-5.725Zm-5.097 6.507c-.127-.75-.623-3.361-1.822-6.478l-.056.02c-4.818 1.678-6.547 5.02-6.7 5.334a8.53 8.53 0 0 0 8.578 1.124Zm-9.682-2.152c.194-.331 2.538-4.212 6.943-5.636.112-.036.224-.07.337-.102a28.64 28.64 0 0 0-.693-1.45C5.976 9.814 1.837 9.76 1.463 9.753a8.508 8.508 0 0 0 2.191 5.972ZM1.64 8.264c.382.005 3.901.02 7.896-1.041a54.521 54.521 0 0 0-3.166-4.94 8.573 8.573 0 0 0-4.73 5.98Zm6.36-6.555a45.595 45.595 0 0 1 3.186 5c3.038-1.138 4.324-2.866 4.477-3.085a8.531 8.531 0 0 0-7.664-1.915Zm8.613 2.903c-.18.243-1.612 2.078-4.77 3.367a26.397 26.397 0 0 1 .75 1.678c2.843-.357 5.667.216 5.949.275a8.5 8.5 0 0 0-1.93-5.32Z" fill="#E94B88"/></svg>