<svg aria-hidden="true" xmlns="http://www.w3.org/2000/svg">
  <defs>
  <!-- Header -->
  <symbol id="icon-logo" viewBox="0 0 105 32">
      <path d="M6.48 31.6H0V0h7.24c1.494 0 2.706.08 3.64.24.96.134 1.706.426 2.24.88s.894 1.106 1.08 1.96c.214.826.32 1.946.32 3.36v3.28c0 .826-.094 1.506-.28 2.04s-.426.96-.72 1.28c-.266.32-.56.56-.88.72-.32.134-.614.226-.88.28v.16c.4.106.76.266 1.08.48.346.186.64.48.88.88s.426.934.56 1.6c.16.64.24 1.466.24 2.48V31.6H8v-14c0-.346-.04-.574-.12-.68-.08-.134-.294-.2-.64-.2h-.76V31.6zm0-19.96h.76c.346 0 .56-.054.64-.16.08-.134.12-.374.12-.72V6.44c0-.346-.04-.574-.12-.68-.08-.134-.294-.2-.64-.2h-.76v6.08zm23.222 15.28c0 1.12-.093 2.014-.28 2.68-.16.666-.48 1.186-.96 1.56-.453.346-1.093.574-1.92.68-.8.106-1.853.16-3.16.16-1.28 0-2.333-.054-3.16-.16s-1.466-.334-1.92-.68c-.453-.374-.773-.894-.96-1.56-.16-.666-.24-1.56-.24-2.68v-14.6c0-1.12.08-2.014.24-2.68.187-.666.507-1.174.96-1.52.454-.374 1.094-.614 1.92-.72s1.88-.16 3.16-.16c1.307 0 2.36.054 3.16.16.827.106 1.467.346 1.92.72.48.346.8.854.96 1.52.187.666.28 1.56.28 2.68v14.6zm-7.04-1.12c0 .346.04.586.12.72.08.106.28.16.6.16.347 0 .56-.054.64-.16.08-.134.12-.374.12-.72V13.44c0-.346-.04-.574-.12-.68-.08-.134-.293-.2-.64-.2-.32 0-.52.066-.6.2-.08.106-.12.334-.12.68V25.8zM38.298 0v8.72c.346-.48.773-.814 1.28-1 .533-.186 1.186-.28 1.96-.28s1.4.094 1.88.28c.48.16.84.426 1.08.8.266.374.44.88.52 1.52.106.614.16 1.374.16 2.28v14.6c0 .934-.054 1.72-.16 2.36-.08.614-.254 1.106-.52 1.48s-.654.64-1.16.8c-.507.16-1.16.24-1.96.24-.907 0-1.64-.094-2.2-.28-.56-.214-.987-.546-1.28-1v1.08h-5.32V0h5.72zm1.32 13.44c0-.32-.04-.546-.12-.68-.054-.134-.227-.2-.52-.2-.267 0-.467.054-.6.16-.107.08-.187.214-.24.4v13a.989.989 0 0 0 .24.44c.133.08.333.12.6.12.293 0 .466-.066.52-.2.08-.134.12-.36.12-.68V13.44zm14.189-9.28h-5.68V0h5.68v4.16zm0 27.44h-5.68V7.64h5.68V31.6zm16.264 0h-5.76V13.44c0-.32-.04-.546-.12-.68-.054-.134-.227-.2-.52-.2-.267 0-.467.054-.6.16-.107.08-.2.214-.28.4V31.6h-5.72V7.64h5.32v1.08c.293-.454.72-.774 1.28-.96.56-.214 1.293-.32 2.2-.32.8 0 1.466.08 2 .24.56.16 1 .426 1.32.8s.546.88.68 1.52c.133.614.2 1.386.2 2.32V31.6zm8.855 0h-5.8v-5.64h5.8v5.64zM104.573 0l-3.28 31.6h-8.16l-1.08-22.92h-.16l-1.32 22.92h-8.28L79.853 0h6.52l.68 22.16h.16L88.173 0h8l.68 22.16h.16l1-22.16h6.56z"/>
    </symbol>
 
<!-- Work-experience -->
    <symbol id="icon-cbre" viewBox="0 0 130 32">
      <path d="M58.885 15.477c4.093-1.35 4.837-4.766 4.826-7.549-.008-4.25-3.026-7.925-11.959-7.925L35.077 0v31.934h16.632c8.986 0 12.293-4.587 12.293-9.181 0-5.562-5.117-7.276-5.117-7.276zM42.991 6.949l11.266.009c1.268.222 2.19 1.294 2.19 2.551 0 1.285-.989 2.496-2.295 2.673l-11.154.015-.008-5.248zm10.685 17.545H42.99v-5.347l10.974.003c1.361.155 2.392 1.28 2.392 2.619 0 1.457-1.219 2.702-2.68 2.725zM101.339.005h28.177l-.015 6.97h-20.332l.018 5.147h18.331v7.005h-18.331v5.57h20.337l-.005 7.304h-28.18V.006zm-16.39.041H67.91v31.945h7.825V19.066l8.617-.009c2.469.037 4.389 2.046 4.389 4.526v8.381l7.659-.003-.015-10.31c0-4.777-4.642-6.187-4.642-6.187s4.745-1.413 4.745-7.058c0-6.909-5.973-8.36-11.538-8.36zm4.272 9.911c-.14 1.051-1.196 2.19-2.514 2.19l-10.997.005V7.037h11.002c1.314 0 2.344.962 2.51 2.225v.696zM30.004 24.271c-.113.003-10.697.206-14.35-.148-5.885-.573-7.97-4.907-7.97-8.442 0-4.41 3.025-7.656 7.71-8.265 2.228-.29 14.415-.152 14.543-.152l.256.005.026-7.266-.259.002-13.794.026c-1.534.091-4.081.247-6.688 1.306-2.55 1.177-4.671 2.901-6.282 5.032l-.03.041a15.695 15.695 0 0 0-3.168 9.493v.029-.002c0 1.086.087 2.164.264 3.2.992 4.843 4.186 8.85 8.766 11.006 1.547.677 3.931 1.489 8.742 1.755l2.59.055 9.871.009.026-7.688-.256.003z"/>
    </symbol>
    <symbol id="icon-epiq" viewBox="0 0 78 32">
      <path d="M21.53 15.556c-1.527 4.65-5.265 7.271-10.318 7.271C4.927 22.827 0 17.839 0 11.456 0 5.158 4.927 0 10.999 0c5.647 0 11.084 4.651 11.042 12.386H3.652c.467 4.524 3.95 7.187 7.559 7.187 3.101 0 5.309-1.48 6.499-4.017h3.82zm-3.481-6.383c-.89-3.551-3.864-5.918-7.05-5.918-3.015 0-6.2 2.199-7.134 5.918h14.184zm16.69 13.654c-3.143 0-5.862-1.69-7.432-3.805V32h-3.61V.55h3.482v3.467C28.708 1.819 31.51 0 34.738 0c6.285 0 10.915 5.116 10.915 11.372 0 6.34-4.63 11.454-10.914 11.454zm0-19.529c-4.035 0-7.432 3.635-7.432 8.074 0 4.48 3.396 8.158 7.432 8.158 4.076 0 7.305-3.678 7.305-8.158 0-4.439-3.229-8.074-7.305-8.074zM47.224.551h3.609V22.32h-3.609V.55zm5.222 10.918c0-6.353 5.181-11.463 11.738-11.463 6.56 0 11.741 5.109 11.741 11.463 0 6.353-5.228 11.369-11.741 11.369-6.51 0-11.738-5.016-11.738-11.369zm12.73-7.994c-5.976-.52-9.3 4.009-9.3 9.284 0 5.274 4.369 9.553 9.754 9.553h.018a9.819 9.819 0 0 0 5.652-1.779l-.032.021-1.352-3.427c1.397-1.448 2.205-3.45 2.205-5.662 0-4.373-3.068-7.627-6.946-7.99z"/>
      <path d="m62.029 13.657 10.648 8.625h5.667l-10.375-8.626z"/>
    </symbol>
    <symbol id="icon-flag" viewBox="0 0 31 32">
      <path d="M29.546 0H.369a.369.369 0 0 0-.131.714l.003.001 26.39 8.64a.135.135 0 0 0 .162-.063v-.001l3.937-7.305A1.346 1.346 0 0 0 29.546.001zM.007 30.541a.356.356 0 0 0 .668.171l.001-.002 5.076-9.404a1.346 1.346 0 0 1 1.184-.706h12.952c.51 0 .953-.284 1.182-.701l.004-.007 3.87-7.175a.107.107 0 0 0-.002-.106v.001a.108.108 0 0 0-.092-.052H1.353c-.744 0-1.346.603-1.346 1.346V30.54z"/>
    </symbol>
    <symbol id="icon-leaf" viewBox="0 0 32 32">
      <path d="M29.696 0H15.464C6.926 0 0 5.947 0 14.487v10.042C6.234 11.782 21.387 2.828 29.696 0z"/>
      <path d="M1.524 32h12.613c8.541 0 15.465-6.924 15.465-15.465V.739C16.436 8.05 7.426 19.43 1.524 32z"/>
    </symbol>
     <symbol id="icon-M" viewBox="0 0 64 32">
     <path d="M44.576 10.459c.235 0 .466-.015.693-.045l8.852 12.876a5.23 5.23 0 1 0 1.992-1.389L47.615 9.486a5.23 5.23 0 1 0-5.923.106l-8.42 12.212a5.236 5.236 0 0 0-3.087-.063L21.809 9.592a5.23 5.23 0 1 0-5.94-.118L7.256 21.948a5.23 5.23 0 1 0 2.013 1.502l8.963-13.037a5.28 5.28 0 0 0 1.158.025l8.671 12.504a5.23 5.23 0 1 0 7.277.144l8.771-12.649c.153.014.309.02.466.02z"/>
     </symbol>
    <symbol id="icon-place" viewBox="0 0 197 32">
    <path d="M10.194 11.141c0-.422-.143-.786-.43-1.092a1.408 1.408 0 0 0-1.067-.459c-1.338 0-2.729 1.425-4.173 4.274-1.337 2.575-2.007 4.621-2.007 6.14 0 1.372.467 2.058 1.401 2.058 1.316 0 2.633-1.33 3.95-3.988a29.106 29.106 0 0 0 2.103-5.76c.148-.591.223-.981.223-1.171zm3.854 7.976v.064a.248.248 0 0 0-.032.094c-.445 1.076-1.03 1.994-1.752 2.754-.913.929-1.869 1.393-2.867 1.393-1.147 0-1.72-.685-1.72-2.057 0-.358.031-.707.095-1.045-1.422 2.068-2.972 3.102-4.651 3.102-.998 0-1.783-.39-2.357-1.171C.255 21.575 0 20.721 0 19.687c0-2.11.924-4.441 2.771-6.995 1.975-2.701 3.982-4.051 6.021-4.051.871 0 1.603.38 2.198 1.14.169-.633.51-.95 1.02-.95.977 0 1.465.17 1.465.507 0 .064-.244.823-.733 2.278-1.891 5.634-2.835 8.874-2.835 9.718 0 .401.148.601.446.601.594 0 1.279-.538 2.054-1.614s1.173-1.614 1.195-1.614c.297 0 .446.138.446.412zM30.23 6.456c0-1.772-.43-3.043-1.289-3.813-.861-.77-2.162-1.145-3.903-1.124-1.359 0-2.039.296-2.039.886v9.02c.786.127 1.359.19 1.72.19 3.695-.02 5.532-1.74 5.511-5.159zm3.759 0c0 4.221-2.879 6.33-8.633 6.33-.744 0-1.529-.041-2.357-.126v5.634c0 1.983.351 3.123 1.051 3.419.042.021.499.158 1.37.412.509.126.753.296.733.506-.021.254-.192.38-.51.38h-8.664c-.318 0-.488-.126-.509-.38-.021-.21.223-.379.733-.506.87-.254 1.327-.391 1.37-.412.701-.296 1.051-1.435 1.051-3.419V5.317c0-1.984-.35-3.123-1.051-3.419-.043-.021-.499-.159-1.37-.412-.51-.126-.754-.295-.733-.507.021-.254.191-.379.509-.379h9.334c2.209 0 3.992.454 5.351 1.361 1.55 1.012 2.326 2.511 2.326 4.494zM41.876 22.631c-.022.254-.192.38-.51.38h-6.88c-.319 0-.489-.126-.51-.38-.021-.168.223-.317.733-.443.658-.147 1.115-.305 1.37-.474s.393-.633.414-1.393V3.704c0-.569-.053-.944-.16-1.124s-.425-.269-.955-.269c-.808 0-1.211-.127-1.211-.38 0-.274.255-.464.764-.57A24.67 24.67 0 0 0 38.563.317c.148-.043.266-.064.35-.064.212 0 .34.122.382.364s.064.755.064 1.535v16.142c0 2.132.138 3.271.414 3.419.149.085.606.221 1.37.412.51.148.753.316.733.506zM51.273 18.784v-3.528c-1.572.294-2.75.651-3.535 1.071-1.274.715-1.911 1.701-1.911 2.961 0 .672.196 1.213.589 1.622s.929.614 1.609.614c.849 0 1.603-.263 2.262-.787s.987-1.176.987-1.953zm5.829 2.043c-.573 1.625-1.571 2.437-2.994 2.437-1.529 0-2.464-.769-2.803-2.311-1.615 1.541-3.25 2.311-4.906 2.311-1.062 0-1.901-.305-2.516-.915s-.924-1.442-.924-2.495c0-1.916 1.04-3.347 3.122-4.295 1.189-.526 2.92-.937 5.192-1.231.064-2-.096-3.294-.478-3.884-.318-.526-1.04-.778-2.166-.758-.935.021-1.551.317-1.848.887l-.445 1.582c-.212.57-.669.855-1.37.855-.935 0-1.401-.401-1.401-1.203 0-1.033.647-1.835 1.942-2.405.998-.422 2.124-.633 3.377-.633 3.441.021 5.161 1.2 5.161 3.537v7.798c0 1.137.318 1.695.955 1.673.425 0 .78-.226 1.067-.68.287-.453.494-.68.622-.68.127 0 .239.047.334.142s.122.185.079.269zM69.601 20.838c-1.381 1.787-3.079 2.679-5.096 2.679-2.103 0-3.78-.665-5.033-1.998-1.253-1.332-1.879-3.066-1.879-5.202s.696-3.933 2.087-5.392c1.39-1.458 3.158-2.178 5.303-2.157.977 0 1.933.211 2.868.633 1.168.528 1.751 1.223 1.751 2.089 0 .822-.425 1.234-1.274 1.234-.51 0-.908-.242-1.195-.728s-.557-.97-.812-1.456c-.382-.506-.914-.759-1.593-.759-1.402 0-2.463.677-3.185 2.03-.552 1.08-.828 2.391-.828 3.935 0 1.692.339 3.121 1.02 4.284.807 1.439 1.985 2.158 3.535 2.158.892 0 1.742-.32 2.548-.96.169-.15.69-.694 1.561-1.633.106-.107.202-.16.286-.16.192 0 .287.16.287.478s-.117.628-.351.926zM81.094 13.511c-.128-2.508-1.136-3.751-3.026-3.731-2.038.021-3.26 1.477-3.664 4.368h3.982c1.827 0 2.729-.213 2.708-.638zm3.026 1.333c0 .233-.117.37-.351.412h-9.492c-.021.296-.032.518-.032.665 0 1.731.318 3.133.955 4.21.807 1.329 2.017 1.994 3.632 1.994 1.061 0 1.964-.232 2.707-.696.382-.254.944-.77 1.688-1.551a.395.395 0 0 1 .286-.126c.276 0 .415.126.415.38a.56.56 0 0 1-.096.284c-1.211 2.047-3.122 3.06-5.734 3.039-2.082-.022-3.759-.691-5.033-2.01s-1.911-3.002-1.911-5.049c0-2.11.626-3.893 1.879-5.349 1.338-1.54 3.048-2.3 5.129-2.278 1.592 0 2.92.474 3.982 1.424 1.295 1.139 1.953 2.69 1.975 4.652zM102.787 2.058c0 .316-.111.596-.335.839s-.494.364-.813.364c-.509 0-.913-.369-1.21-1.108s-.69-1.108-1.178-1.108c-1.105 0-1.976.646-2.613 1.938-.233.445-.605 1.557-1.115 3.337l-.859 2.987h3.153c.276 0 .415.131.415.391 0 .435-.234.653-.702.653h-3.12L91.224 22.28c-.744 2.777-1.476 4.829-2.198 6.154C87.708 30.811 86.063 32 84.087 32c-.743 0-1.401-.211-1.975-.633s-.86-.982-.86-1.678c0-.949.43-1.424 1.289-1.424.588 0 .955.232 1.101.696.042.168.063.622.063 1.361 0 .485.224.728.671.728.896 0 1.685-.801 2.367-2.402.299-.695.672-1.886 1.119-3.571l3.903-14.727h-3.313c-.191 0-.287-.12-.287-.359 0-.457.202-.685.606-.685h3.185c.848-2.722 1.677-4.716 2.483-5.982C95.82 1.108 97.529 0 99.568 0c.744 0 1.433.159 2.07.474.765.38 1.147.908 1.147 1.583zM105.847 12.186c0-1.731-.584-2.596-1.752-2.596-1.338 0-2.57 1.404-3.694 4.21-.957 2.385-1.434 4.379-1.434 5.982 0 1.836.626 2.754 1.88 2.754 1.316 0 2.527-1.424 3.631-4.273.913-2.405 1.37-4.431 1.37-6.077zm2.325 1.678c0 2.195-.657 4.273-1.975 6.235-1.486 2.215-3.281 3.324-5.384 3.324-1.38 0-2.442-.549-3.185-1.647-.68-.949-1.02-2.13-1.02-3.545 0-2.173.669-4.261 2.007-6.266 1.508-2.237 3.302-3.355 5.383-3.355 1.381 0 2.442.549 3.186 1.645.658.972.987 2.174.987 3.609zM121.071 10.35c0 .38-.111.728-.335 1.045-.222.316-.515.474-.876.474s-.637-.221-.828-.665c-.192-.443-.446-.665-.764-.665-1.169 0-3.08 4.157-5.734 12.47h-2.485c.637-2.131 1.274-4.273 1.911-6.425.998-3.397 1.497-5.307 1.497-5.729 0-.358-.159-.538-.477-.538-.573 0-1.115.348-1.625 1.045-.169.212-.509.791-1.018 1.741-.128.253-.308.38-.542.38-.319 0-.478-.127-.478-.38l.031-.127c.276-1.054.818-2.014 1.625-2.88.912-.95 1.879-1.424 2.898-1.424 1.125 0 1.688.644 1.688 1.931 0 .401-.074.898-.222 1.487a55.55 55.55 0 0 0-.415 1.488c1.614-3.27 3.133-4.906 4.555-4.906.468 0 .85.164 1.148.491s.446.722.446 1.186zM150.153 22.631c-.02.253-.191.38-.509.38h-8.41c-.319 0-.489-.127-.509-.38-.022-.21.223-.379.732-.506.87-.253 1.327-.391 1.37-.412.701-.295 1.051-1.434 1.051-3.419V3.355l-8.219 19.244c-.189.443-.339.664-.445.664s-.285-.284-.541-.854l-7.072-16.143c-.382-.865-.765-1.593-1.147-2.184l.192 14.212c.021 1.013.064 1.699.128 2.058.148.695.457 1.15.924 1.361.042.021.499.158 1.369.412.509.127.754.296.733.506-.022.253-.191.38-.511.38h-6.816c-.318 0-.489-.127-.509-.38-.022-.21.222-.379.733-.506.87-.253 1.327-.391 1.37-.412.466-.21.775-.686.923-1.425.085-.358.128-1.023.128-1.994l.159-15.573c-.34-.273-.839-.548-1.497-.823a24.305 24.305 0 0 1-1.37-.412c-.51-.127-.754-.295-.733-.507.02-.254.191-.379.509-.379h3.822c1.444.022 2.272.09 2.485.206.211.117.531.67.956 1.662l6.785 15.794 7.327-17.187c.127-.317.413-.475.859-.475h5.225c.319 0 .489.126.509.379.02.212-.223.38-.732.507-.872.254-1.327.391-1.37.412-.701.296-1.052 1.436-1.052 3.419v12.977c0 1.984.351 3.123 1.052 3.419.042.021.498.158 1.37.412.509.127.753.296.732.506zM162.322 16.158c0-1.756-.288-3.194-.861-4.316-.742-1.459-1.901-2.188-3.471-2.188-1.572 0-2.729.751-3.471 2.253-.573 1.121-.86 2.548-.86 4.283 0 1.692.287 3.099.86 4.219.764 1.439 1.921 2.158 3.471 2.158 1.571 0 2.729-.719 3.471-2.158.573-1.121.861-2.538.861-4.252zm3.057-.19c0 2.157-.7 3.954-2.102 5.393s-3.186 2.157-5.352 2.157-3.918-.677-5.254-2.03c-1.34-1.354-2.008-3.119-2.008-5.297 0-2.157.701-3.934 2.103-5.33 1.4-1.396 3.186-2.092 5.352-2.092 2.058 0 3.785.687 5.176 2.061 1.39 1.374 2.085 3.087 2.085 5.138zM192.87 22.632c-.022.253-.192.379-.511.379h-6.88c-.319 0-.489-.126-.509-.379-.02-.168.223-.316.732-.443.658-.147 1.12-.309 1.386-.488.265-.179.398-1.311.398-3.395v-4.104c0-1.285-.159-2.221-.477-2.811-.425-.8-1.243-1.2-2.454-1.2-1.019 0-1.891.311-2.611.932-.723.621-1.083 1.384-1.083 2.289v4.893c.02 1.263.031 1.957.031 2.084.044.758.17 1.2.383 1.326.211.127.669.274 1.37.442.509.126.753.284.733.474-.022.253-.192.379-.509.379h-6.881c-.319 0-.489-.126-.509-.379-.022-.168.223-.316.732-.443.658-.147 1.119-.309 1.386-.488.265-.179.398-1.311.398-3.395v-4.104c0-1.285-.159-2.221-.479-2.811-.424-.8-1.242-1.2-2.452-1.2-1.02 0-1.889.311-2.611.932s-1.083 1.384-1.083 2.289v4.893c0 2.126.137 3.263.413 3.41.148.084.604.221 1.37.41.509.147.754.316.733.505-.023.253-.192.379-.509.379h-6.881c-.319 0-.489-.126-.509-.38-.022-.168.233-.305.763-.412.659-.126 1.116-.3 1.371-.522s.383-1.356.383-3.403v-6.045c0-.57-.052-.944-.16-1.124-.106-.179-.425-.269-.956-.269-.806 0-1.21-.126-1.21-.379 0-.274.253-.465.763-.57a24.29 24.29 0 0 0 3.626-1.045c.192-.042.319-.063.383-.063.191 0 .307.138.351.412.019.19.041.728.063 1.614.466-.602 1.149-1.09 2.052-1.464a7.196 7.196 0 0 1 2.783-.562c2.207 0 3.585.813 4.137 2.438 1.272-1.625 3.053-2.438 5.344-2.438 1.74 0 2.938.474 3.596 1.422.721 1.032 1.08 2.653 1.08 4.863v3.222c0 1.2.012 1.895.032 2.084.044.759.17 1.2.383 1.327s.669.274 1.371.442c.508.126.753.284.732.474zM195.718 21.203a.735.735 0 0 0-.26-.036h-.109v.493h.175c.104 0 .184-.021.243-.063s.088-.108.088-.201c0-.092-.046-.157-.138-.193zm-.815 1.364v-1.698l.475.001.353.003c.134.01.247.039.337.088.152.083.228.218.228.405 0 .143-.04.246-.12.309a.55.55 0 0 1-.296.114.571.571 0 0 1 .242.098c.101.081.151.208.151.381v.151a.289.289 0 0 0 .017.1l.015.048h-.428a1.252 1.252 0 0 1-.028-.235.732.732 0 0 0-.028-.207.206.206 0 0 0-.125-.125.488.488 0 0 0-.152-.027l-.099-.006h-.095v.601h-.447zm-.23-1.74a1.22 1.22 0 0 0-.369.887c0 .355.125.656.375.904.248.248.548.372.9.372.349 0 .649-.125.897-.374.248-.251.372-.552.372-.902a1.22 1.22 0 0 0-.371-.887 1.213 1.213 0 0 0-.899-.382c-.355 0-.657.128-.906.382zm1.985 1.987c-.3.288-.659.432-1.079.432-.434 0-.799-.147-1.097-.443a1.475 1.475 0 0 1-.445-1.089c0-.448.161-.82.481-1.116a1.517 1.517 0 0 1 1.061-.416c.425 0 .788.15 1.089.449s.452.66.452 1.082c0 .435-.154.801-.462 1.099z"/>
    </symbol>

    <!-- Footer socials -->
      <symbol id="icon-Dribbble-Logo" viewBox="0 0 32 32">
      <path d="M16 29.333C8.648 29.333 2.667 23.352 2.667 16S8.648 2.667 16 2.667 29.333 8.648 29.333 16 23.352 29.333 16 29.333zm11.244-11.508c-.389-.123-3.524-1.059-7.093-.487 1.489 4.093 2.096 7.427 2.213 8.12 2.556-1.742 4.349-4.439 4.871-7.567l.009-.067zm-6.796 8.676c-.169-1-.831-4.481-2.429-8.637l-.075.027c-6.424 2.237-8.729 6.693-8.933 7.112a11.297 11.297 0 0 0 6.992 2.403 11.34 11.34 0 0 0 4.519-.933l-.074.028zM7.539 23.632c.259-.441 3.384-5.616 9.257-7.515.149-.048.299-.093.449-.136a33.92 33.92 0 0 0-1.024-2.145l.1.211c-5.687 1.703-11.205 1.632-11.704 1.621a11.299 11.299 0 0 0 2.93 7.972l-.009-.01zm-2.687-9.947c.509.007 5.201.027 10.528-1.388A71.513 71.513 0 0 0 11.013 5.5l.145.21c-3.198 1.534-5.537 4.42-6.293 7.898l-.014.075zm8.48-8.74a59.33 59.33 0 0 1 4.09 6.358l.158.309c4.051-1.517 5.765-3.821 5.969-4.113a11.324 11.324 0 0 0-7.553-2.87c-.946 0-1.865.115-2.743.333l.078-.016zm11.484 3.871c-.24.324-2.149 2.771-6.36 4.489.268.518.603 1.254.914 2.004l.086.234c3.791-.476 7.556.288 7.932.367a11.292 11.292 0 0 0-2.589-7.113l.015.019z"/>
    </symbol>
    <symbol id="icon-LinkedIn" viewBox="0 0 32 32">
      <path d="M26.2 4H5.8C4.84 4 4 4.724 4 5.688v20.624C4 27.276 4.84 28 5.8 28h20.4c.96 0 1.8-.724 1.8-1.688V5.688C28 4.844 27.16 4 26.2 4zM11.08 24.623h-3.6V13.166h3.6v11.457zm-1.8-13.146c-1.2 0-2.04-.965-2.04-2.051s.96-2.049 2.04-2.049 2.04.964 2.04 2.049c.12 1.207-.84 2.051-2.04 2.051zM24.4 24.624h-3.6v-5.548c0-1.327 0-3.016-1.8-3.016s-2.16 1.448-2.16 3.016v5.667h-3.6V13.288h3.36v1.568c.48-.965 1.68-1.809 3.36-1.809 3.6 0 4.32 2.412 4.32 5.427v6.151h.12z"/>
    </symbol>
    <symbol id="icon-Twitter-Logo" viewBox="0 0 32 32">
      <path d="M29.333 9.163c-.92.395-1.971.657-3.152.788 1.051-.657 1.969-1.707 2.364-2.889-1.051.656-2.233 1.051-3.416 1.313-.92-1.051-2.364-1.708-3.94-1.708-3.021 0-5.387 2.364-5.387 5.253 0 .395 0 .789.132 1.184-4.468-.264-8.408-2.365-11.167-5.517a4.69 4.69 0 0 0-.787 2.614v.013-.001c0 1.84.919 3.416 2.364 4.467-.92 0-1.708-.263-2.496-.657v.132c0 2.627 1.839 4.729 4.333 5.253-.393.133-.919.133-1.444.133-.393 0-.656 0-1.051-.133.686 2.146 2.66 3.674 4.991 3.68h.001c-1.84 1.444-4.204 2.232-6.7 2.232-.393 0-.92 0-1.313-.131 2.364 1.576 5.253 2.364 8.276 2.364 9.853 0 15.369-8.144 15.369-15.107v-.657c1.445-.656 2.364-1.576 3.021-2.627z"/>
    </symbol>
    
  <!-- Skillset -->
    <symbol id="icon-product" viewBox="0 0 32 32">
      <path d="M30.222 23.112v7.11H17.778v-7.111h12.444zm0-21.334V16H17.778V1.778h12.444zM10.667 16h-8.89v14.222h8.89V16zm0-14.222v7.11h-8.89v-7.11h8.89zM17.777 0C16.797 0 16 .796 16 1.778V16c0 .982.796 1.778 1.778 1.778h12.444c.982 0 1.778-.796 1.778-1.778V1.778C32 .796 31.204 0 30.222 0H17.778zm0 21.333c-.981 0-1.777.796-1.777 1.778v7.111c0 .982.796 1.778 1.778 1.778h12.444c.982 0 1.778-.796 1.778-1.778v-7.11c0-.983-.796-1.779-1.778-1.779H17.778zM0 16c0-.982.796-1.778 1.778-1.778h8.889c.982 0 1.777.796 1.777 1.778v14.222c0 .982-.796 1.778-1.777 1.778h-8.89A1.778 1.778 0 0 1 0 30.222V16zM1.778 0C.796 0 0 .796 0 1.778v7.11c0 .983.796 1.779 1.778 1.779h8.889c.982 0 1.777-.796 1.777-1.778V1.778C12.444.796 11.648 0 10.667 0h-8.89z"/>
    </symbol>

    <symbol id="icon-burger" viewBox="0 0 52 32">
      <path d="M0 0h52.364v8.727h-52.364v-8.727z"></path>
      <path d="M14.545 23.273h37.818v8.727h-37.818v-8.727z"></path>
    </symbol>
    <symbol id="icon-close" viewBox="0 0 32 32"><path d="M23.733 10.304l-1.504-1.504-5.963 5.963-5.963-5.963-1.504 1.504 5.963 5.963-5.963 5.963 1.504 1.504 5.963-5.963 5.963 5.963 1.504-1.504-5.963-5.963 5.963-5.963z"></path></symbol>

      <symbol id="icon-visual" viewBox="0 0 32 32">
      <path d="M17.221 1.2 30.8 14.778l1.2-1.2L18.421 0l-1.2 1.2zM19.234 7.601a2.547 2.547 0 0 0-2.821-.534l.016-.006-9.423 4.04a4.25 4.25 0 0 0-2.343 2.529l-.009.03c-.081-.196-1.097 2.914-2.081 6.038l-.899 3.308c-.167.4-.57 1.748-.952 3.105l-.224.934c-.148.551-.27 1.036-.355 1.427-.079.364-.144.722-.144.98v.352L2.193 32h.352c.258 0 .617-.065.981-.144a28.37 28.37 0 0 0 1.65-.408l-.223.053A98.997 98.997 0 0 0 9.93 30.07l-.938.256c6.438-1.886 9.548-2.903 12.643-3.952l-3.297.97a4.248 4.248 0 0 0 2.549-2.324l.011-.027 4.038-9.424c.13-.296.206-.64.206-1.003 0-.703-.285-1.34-.746-1.8l-5.163-5.164zm-2.135 1.02a.85.85 0 0 1 .934.18l5.164 5.164a.844.844 0 0 1 .178.94l.002-.005-4.038 9.423a2.541 2.541 0 0 1-1.513 1.403l-.018.005c.192.081-2.906 1.094-6.018 2.075l-3.292.895c-1.522.464-2.907.87-3.984 1.16-.54.145-.994.258-1.347.335l-.207.043 8.672-8.672a2.547 2.547 0 1 0-1.193-1.185l-.007-.015L1.76 29.04c.012-.063.027-.132.043-.207.077-.353.19-.808.335-1.347.29-1.078.696-2.462 1.16-3.984 1.876-6.405 2.889-9.503 3.933-12.586l-.963 3.276a2.543 2.543 0 0 1 1.392-1.524l.016-.006 9.423-4.04z"/>
    </symbol>
      <symbol id="icon-motion" viewBox="0 0 32 32">
      <path stroke-width="2" d="M31 16c0 8.284-6.716 15-15 15S1 24.284 1 16C1 7.716 7.716 1 16 1s15 6.716 15 15z"/>
      <path d="m21 16-7.5 4.33v-8.66L21 16z"/>
    </symbol>
       <symbol id="icon-photography" viewBox="0 0 32 32">
      <path d="M29.828 8.236H26.9L26.227 5.2A2.8 2.8 0 0 0 23.496 3h-10.18c-1.33 0-2.459.905-2.746 2.201l-.673 3.035h-.694V6.94c0-.73-.595-1.323-1.326-1.323H3.591c-.73 0-1.325.593-1.325 1.323v1.295h-.094A2.173 2.173 0 0 0 0 10.404v14.688c0 1.196.975 2.169 2.172 2.169h10.075a11.185 11.185 0 0 0 6.137 1.813h.016-.001a11.29 11.29 0 0 0 6.151-1.814h5.278A2.173 2.173 0 0 0 32 25.093V10.404a2.173 2.173 0 0 0-2.172-2.168zM11.79 5.47c.16-.72.788-1.223 1.526-1.223h10.165c.739 0 1.366.503 1.526 1.223l.613 2.765h-1.07a11.19 11.19 0 0 0-6.138-1.814h-.013.001c-2.266 0-4.379.667-6.152 1.814h-1.07l.613-2.765zM3.516 6.94c0-.042.034-.075.075-.075h4.286c.042 0 .076.033.076.075v1.295H3.516V6.94zm1.503 19.072v-6.777a.625.625 0 0 0-1.25 0v6.777H2.172a.923.923 0 0 1-.922-.921V10.404c0-.508.414-.92.922-.92h8.477a11.26 11.26 0 0 0-3.596 8.261v.003c0 3.257 1.385 6.197 3.597 8.265H5.02zm19.15 0c-1.609 1.135-3.61 1.814-5.771 1.814s-4.162-.679-5.802-1.836l.032.021c-2.613-1.824-4.325-4.848-4.325-8.265s1.712-6.441 4.325-8.264c1.609-1.136 3.61-1.815 5.771-1.815s4.162.679 5.802 1.836l-.032-.021c2.613 1.823 4.325 4.847 4.325 8.264s-1.712 6.441-4.325 8.265zm6.581-.921c0 .508-.414.92-.922.92h-3.68a11.26 11.26 0 0 0 3.596-8.261v-.003a11.29 11.29 0 0 0-3.596-8.265h3.68c.508 0 .922.413.922.921v14.688z"/>
      <path d="M18.37 10.111c-4.248 0-7.703 3.456-7.703 7.704s3.456 7.703 7.703 7.703c.62 0 1.235-.073 1.831-.219a.588.588 0 1 0-.282-1.139l.004-.001a6.538 6.538 0 0 1-8.083-6.345c0-3.6 2.93-6.53 6.53-6.53s6.53 2.93 6.53 6.53v.014a6.467 6.467 0 0 1-1.134 3.668l.014-.022a.587.587 0 0 0 .97.66l.001-.002a7.602 7.602 0 0 0 1.323-4.305v-.014.001c0-4.248-3.456-7.704-7.704-7.704zM4.74 11.296a2.374 2.374 0 0 0-2.37 2.37 2.373 2.373 0 0 0 2.37 2.371 2.373 2.373 0 0 0 2.371-2.37 2.374 2.374 0 0 0-2.37-2.37zm0 3.468a1.098 1.098 0 0 1-.002-2.194h.002a1.098 1.098 0 0 1 .001 2.194z"/>
      <path d="M23.692 23.625a.626.626 0 0 0-.089-.215l.001.002a.556.556 0 0 0-.161-.163l-.002-.001a.614.614 0 0 0-.21-.087l-.004-.001a.586.586 0 0 0-.607.25l-.001.002a.6.6 0 0 0-.1.329v.002c0 .122.037.235.101.329l-.001-.002a.572.572 0 0 0 .262.217l.004.001a.599.599 0 0 0 .557-.056l-.002.001a.597.597 0 0 0 .252-.612l.001.004z"/>
    </symbol>


  </defs>
</svg>