<svg aria-hidden="true" xmlns="http://www.w3.org/2000/svg">
  <defs>
    <symbol id="icon-Dribbble-Logo" viewBox="0 0 32 32">
      <path d="M16 29.333C8.648 29.333 2.667 23.352 2.667 16S8.648 2.667 16 2.667 29.333 8.648 29.333 16 23.352 29.333 16 29.333zm11.244-11.508c-.389-.123-3.524-1.059-7.093-.487 1.489 4.093 2.096 7.427 2.213 8.12 2.556-1.742 4.349-4.439 4.871-7.567l.009-.067zm-6.796 8.676c-.169-1-.831-4.481-2.429-8.637l-.075.027c-6.424 2.237-8.729 6.693-8.933 7.112a11.297 11.297 0 0 0 6.992 2.403 11.34 11.34 0 0 0 4.519-.933l-.074.028zM7.539 23.632c.259-.441 3.384-5.616 9.257-7.515.149-.048.299-.093.449-.136a33.92 33.92 0 0 0-1.024-2.145l.1.211c-5.687 1.703-11.205 1.632-11.704 1.621a11.299 11.299 0 0 0 2.93 7.972l-.009-.01zm-2.687-9.947c.509.007 5.201.027 10.528-1.388A71.513 71.513 0 0 0 11.013 5.5l.145.21c-3.198 1.534-5.537 4.42-6.293 7.898l-.014.075zm8.48-8.74a59.33 59.33 0 0 1 4.09 6.358l.158.309c4.051-1.517 5.765-3.821 5.969-4.113a11.324 11.324 0 0 0-7.553-2.87c-.946 0-1.865.115-2.743.333l.078-.016zm11.484 3.871c-.24.324-2.149 2.771-6.36 4.489.268.518.603 1.254.914 2.004l.086.234c3.791-.476 7.556.288 7.932.367a11.292 11.292 0 0 0-2.589-7.113l.015.019z"/>
    </symbol>
    <symbol id="icon-photography" viewBox="0 0 32 32">
      <path d="M29.828 8.236H26.9L26.227 5.2A2.8 2.8 0 0 0 23.496 3h-10.18c-1.33 0-2.459.905-2.746 2.201l-.673 3.035h-.694V6.94c0-.73-.595-1.323-1.326-1.323H3.591c-.73 0-1.325.593-1.325 1.323v1.295h-.094A2.173 2.173 0 0 0 0 10.404v14.688c0 1.196.975 2.169 2.172 2.169h10.075a11.185 11.185 0 0 0 6.137 1.813h.016-.001a11.29 11.29 0 0 0 6.151-1.814h5.278A2.173 2.173 0 0 0 32 25.093V10.404a2.173 2.173 0 0 0-2.172-2.168zM11.79 5.47c.16-.72.788-1.223 1.526-1.223h10.165c.739 0 1.366.503 1.526 1.223l.613 2.765h-1.07a11.19 11.19 0 0 0-6.138-1.814h-.013.001c-2.266 0-4.379.667-6.152 1.814h-1.07l.613-2.765zM3.516 6.94c0-.042.034-.075.075-.075h4.286c.042 0 .076.033.076.075v1.295H3.516V6.94zm1.503 19.072v-6.777a.625.625 0 0 0-1.25 0v6.777H2.172a.923.923 0 0 1-.922-.921V10.404c0-.508.414-.92.922-.92h8.477a11.26 11.26 0 0 0-3.596 8.261v.003c0 3.257 1.385 6.197 3.597 8.265H5.02zm19.15 0c-1.609 1.135-3.61 1.814-5.771 1.814s-4.162-.679-5.802-1.836l.032.021c-2.613-1.824-4.325-4.848-4.325-8.265s1.712-6.441 4.325-8.264c1.609-1.136 3.61-1.815 5.771-1.815s4.162.679 5.802 1.836l-.032-.021c2.613 1.823 4.325 4.847 4.325 8.264s-1.712 6.441-4.325 8.265zm6.581-.921c0 .508-.414.92-.922.92h-3.68a11.26 11.26 0 0 0 3.596-8.261v-.003a11.29 11.29 0 0 0-3.596-8.265h3.68c.508 0 .922.413.922.921v14.688z"/>
      <path d="M18.37 10.111c-4.248 0-7.703 3.456-7.703 7.704s3.456 7.703 7.703 7.703c.62 0 1.235-.073 1.831-.219a.588.588 0 1 0-.282-1.139l.004-.001a6.538 6.538 0 0 1-8.083-6.345c0-3.6 2.93-6.53 6.53-6.53s6.53 2.93 6.53 6.53v.014a6.467 6.467 0 0 1-1.134 3.668l.014-.022a.587.587 0 0 0 .97.66l.001-.002a7.602 7.602 0 0 0 1.323-4.305v-.014.001c0-4.248-3.456-7.704-7.704-7.704zM4.74 11.296a2.374 2.374 0 0 0-2.37 2.37 2.373 2.373 0 0 0 2.37 2.371 2.373 2.373 0 0 0 2.371-2.37 2.374 2.374 0 0 0-2.37-2.37zm0 3.468a1.098 1.098 0 0 1-.002-2.194h.002a1.098 1.098 0 0 1 .001 2.194z"/>
      <path d="M23.692 23.625a.626.626 0 0 0-.089-.215l.001.002a.556.556 0 0 0-.161-.163l-.002-.001a.614.614 0 0 0-.21-.087l-.004-.001a.586.586 0 0 0-.607.25l-.001.002a.6.6 0 0 0-.1.329v.002c0 .122.037.235.101.329l-.001-.002a.572.572 0 0 0 .262.217l.004.001a.599.599 0 0 0 .557-.056l-.002.001a.597.597 0 0 0 .252-.612l.001.004z"/>
    </symbol>
    <symbol id="icon-visual" viewBox="0 0 32 32">
      <path d="M17.221 1.2 30.8 14.778l1.2-1.2L18.421 0l-1.2 1.2zM19.234 7.601a2.547 2.547 0 0 0-2.821-.534l.016-.006-9.423 4.04a4.25 4.25 0 0 0-2.343 2.529l-.009.03c-.081-.196-1.097 2.914-2.081 6.038l-.899 3.308c-.167.4-.57 1.748-.952 3.105l-.224.934c-.148.551-.27 1.036-.355 1.427-.079.364-.144.722-.144.98v.352L2.193 32h.352c.258 0 .617-.065.981-.144a28.37 28.37 0 0 0 1.65-.408l-.223.053A98.997 98.997 0 0 0 9.93 30.07l-.938.256c6.438-1.886 9.548-2.903 12.643-3.952l-3.297.97a4.248 4.248 0 0 0 2.549-2.324l.011-.027 4.038-9.424c.13-.296.206-.64.206-1.003 0-.703-.285-1.34-.746-1.8l-5.163-5.164zm-2.135 1.02a.85.85 0 0 1 .934.18l5.164 5.164a.844.844 0 0 1 .178.94l.002-.005-4.038 9.423a2.541 2.541 0 0 1-1.513 1.403l-.018.005c.192.081-2.906 1.094-6.018 2.075l-3.292.895c-1.522.464-2.907.87-3.984 1.16-.54.145-.994.258-1.347.335l-.207.043 8.672-8.672a2.547 2.547 0 1 0-1.193-1.185l-.007-.015L1.76 29.04c.012-.063.027-.132.043-.207.077-.353.19-.808.335-1.347.29-1.078.696-2.462 1.16-3.984 1.876-6.405 2.889-9.503 3.933-12.586l-.963 3.276a2.543 2.543 0 0 1 1.392-1.524l.016-.006 9.423-4.04z"/>
    </symbol>
    <symbol id="icon-cbre" viewBox="0 0 130 32">
      <path d="M58.885 15.477c4.093-1.35 4.837-4.766 4.826-7.549-.008-4.25-3.026-7.925-11.959-7.925L35.077 0v31.934h16.632c8.986 0 12.293-4.587 12.293-9.181 0-5.562-5.117-7.276-5.117-7.276zM42.991 6.949l11.266.009c1.268.222 2.19 1.294 2.19 2.551 0 1.285-.989 2.496-2.295 2.673l-11.154.015-.008-5.248zm10.685 17.545H42.99v-5.347l10.974.003c1.361.155 2.392 1.28 2.392 2.619 0 1.457-1.219 2.702-2.68 2.725zM101.339.005h28.177l-.015 6.97h-20.332l.018 5.147h18.331v7.005h-18.331v5.57h20.337l-.005 7.304h-28.18V.006zm-16.39.041H67.91v31.945h7.825V19.066l8.617-.009c2.469.037 4.389 2.046 4.389 4.526v8.381l7.659-.003-.015-10.31c0-4.777-4.642-6.187-4.642-6.187s4.745-1.413 4.745-7.058c0-6.909-5.973-8.36-11.538-8.36zm4.272 9.911c-.14 1.051-1.196 2.19-2.514 2.19l-10.997.005V7.037h11.002c1.314 0 2.344.962 2.51 2.225v.696zM30.004 24.271c-.113.003-10.697.206-14.35-.148-5.885-.573-7.97-4.907-7.97-8.442 0-4.41 3.025-7.656 7.71-8.265 2.228-.29 14.415-.152 14.543-.152l.256.005.026-7.266-.259.002-13.794.026c-1.534.091-4.081.247-6.688 1.306-2.55 1.177-4.671 2.901-6.282 5.032l-.03.041a15.695 15.695 0 0 0-3.168 9.493v.029-.002c0 1.086.087 2.164.264 3.2.992 4.843 4.186 8.85 8.766 11.006 1.547.677 3.931 1.489 8.742 1.755l2.59.055 9.871.009.026-7.688-.256.003z"/>
    </symbol>
    <symbol id="icon-motion" viewBox="0 0 32 32">
      <path stroke-width="2" d="M31 16c0 8.284-6.716 15-15 15S1 24.284 1 16C1 7.716 7.716 1 16 1s15 6.716 15 15z"/>
      <path d="m21 16-7.5 4.33v-8.66L21 16z"/>
    </symbol>
    <symbol id="icon-epiq" viewBox="0 0 78 32">
      <path d="M21.53 15.556c-1.527 4.65-5.265 7.271-10.318 7.271C4.927 22.827 0 17.839 0 11.456 0 5.158 4.927 0 10.999 0c5.647 0 11.084 4.651 11.042 12.386H3.652c.467 4.524 3.95 7.187 7.559 7.187 3.101 0 5.309-1.48 6.499-4.017h3.82zm-3.481-6.383c-.89-3.551-3.864-5.918-7.05-5.918-3.015 0-6.2 2.199-7.134 5.918h14.184zm16.69 13.654c-3.143 0-5.862-1.69-7.432-3.805V32h-3.61V.55h3.482v3.467C28.708 1.819 31.51 0 34.738 0c6.285 0 10.915 5.116 10.915 11.372 0 6.34-4.63 11.454-10.914 11.454zm0-19.529c-4.035 0-7.432 3.635-7.432 8.074 0 4.48 3.396 8.158 7.432 8.158 4.076 0 7.305-3.678 7.305-8.158 0-4.439-3.229-8.074-7.305-8.074zM47.224.551h3.609V22.32h-3.609V.55zm5.222 10.918c0-6.353 5.181-11.463 11.738-11.463 6.56 0 11.741 5.109 11.741 11.463 0 6.353-5.228 11.369-11.741 11.369-6.51 0-11.738-5.016-11.738-11.369zm12.73-7.994c-5.976-.52-9.3 4.009-9.3 9.284 0 5.274 4.369 9.553 9.754 9.553h.018a9.819 9.819 0 0 0 5.652-1.779l-.032.021-1.352-3.427c1.397-1.448 2.205-3.45 2.205-5.662 0-4.373-3.068-7.627-6.946-7.99z"/>
      <path d="m62.029 13.657 10.648 8.625h5.667l-10.375-8.626z"/>
    </symbol>
    <symbol id="icon-flag" viewBox="0 0 31 32">
      <path d="M29.546 0H.369a.369.369 0 0 0-.131.714l.003.001 26.39 8.64a.135.135 0 0 0 .162-.063v-.001l3.937-7.305A1.346 1.346 0 0 0 29.546.001zM.007 30.541a.356.356 0 0 0 .668.171l.001-.002 5.076-9.404a1.346 1.346 0 0 1 1.184-.706h12.952c.51 0 .953-.284 1.182-.701l.004-.007 3.87-7.175a.107.107 0 0 0-.002-.106v.001a.108.108 0 0 0-.092-.052H1.353c-.744 0-1.346.603-1.346 1.346V30.54z"/>
    </symbol>
    <symbol id="icon-leaf" viewBox="0 0 32 32">
      <path d="M29.696 0H15.464C6.926 0 0 5.947 0 14.487v10.042C6.234 11.782 21.387 2.828 29.696 0z"/>
      <path d="M1.524 32h12.613c8.541 0 15.465-6.924 15.465-15.465V.739C16.436 8.05 7.426 19.43 1.524 32z"/>
    </symbol>
    <symbol id="icon-LinkedIn" viewBox="0 0 32 32">
      <path d="M26.2 4H5.8C4.84 4 4 4.724 4 5.688v20.624C4 27.276 4.84 28 5.8 28h20.4c.96 0 1.8-.724 1.8-1.688V5.688C28 4.844 27.16 4 26.2 4zM11.08 24.623h-3.6V13.166h3.6v11.457zm-1.8-13.146c-1.2 0-2.04-.965-2.04-2.051s.96-2.049 2.04-2.049 2.04.964 2.04 2.049c.12 1.207-.84 2.051-2.04 2.051zM24.4 24.624h-3.6v-5.548c0-1.327 0-3.016-1.8-3.016s-2.16 1.448-2.16 3.016v5.667h-3.6V13.288h3.36v1.568c.48-.965 1.68-1.809 3.36-1.809 3.6 0 4.32 2.412 4.32 5.427v6.151h.12z"/>
    </symbol>
    <symbol id="icon-Twitter-Logo" viewBox="0 0 32 32">
      <path d="M29.333 9.163c-.92.395-1.971.657-3.152.788 1.051-.657 1.969-1.707 2.364-2.889-1.051.656-2.233 1.051-3.416 1.313-.92-1.051-2.364-1.708-3.94-1.708-3.021 0-5.387 2.364-5.387 5.253 0 .395 0 .789.132 1.184-4.468-.264-8.408-2.365-11.167-5.517a4.69 4.69 0 0 0-.787 2.614v.013-.001c0 1.84.919 3.416 2.364 4.467-.92 0-1.708-.263-2.496-.657v.132c0 2.627 1.839 4.729 4.333 5.253-.393.133-.919.133-1.444.133-.393 0-.656 0-1.051-.133.686 2.146 2.66 3.674 4.991 3.68h.001c-1.84 1.444-4.204 2.232-6.7 2.232-.393 0-.92 0-1.313-.131 2.364 1.576 5.253 2.364 8.276 2.364 9.853 0 15.369-8.144 15.369-15.107v-.657c1.445-.656 2.364-1.576 3.021-2.627z"/>
    </symbol>
    <symbol id="icon-robin" viewBox="0 0 105 32">
      <path d="M6.48 31.6H0V0h7.24c1.494 0 2.706.08 3.64.24.96.134 1.706.426 2.24.88s.894 1.106 1.08 1.96c.214.826.32 1.946.32 3.36v3.28c0 .826-.094 1.506-.28 2.04s-.426.96-.72 1.28c-.266.32-.56.56-.88.72-.32.134-.614.226-.88.28v.16c.4.106.76.266 1.08.48.346.186.64.48.88.88s.426.934.56 1.6c.16.64.24 1.466.24 2.48V31.6H8v-14c0-.346-.04-.574-.12-.68-.08-.134-.294-.2-.64-.2h-.76V31.6zm0-19.96h.76c.346 0 .56-.054.64-.16.08-.134.12-.374.12-.72V6.44c0-.346-.04-.574-.12-.68-.08-.134-.294-.2-.64-.2h-.76v6.08zm23.222 15.28c0 1.12-.093 2.014-.28 2.68-.16.666-.48 1.186-.96 1.56-.453.346-1.093.574-1.92.68-.8.106-1.853.16-3.16.16-1.28 0-2.333-.054-3.16-.16s-1.466-.334-1.92-.68c-.453-.374-.773-.894-.96-1.56-.16-.666-.24-1.56-.24-2.68v-14.6c0-1.12.08-2.014.24-2.68.187-.666.507-1.174.96-1.52.454-.374 1.094-.614 1.92-.72s1.88-.16 3.16-.16c1.307 0 2.36.054 3.16.16.827.106 1.467.346 1.92.72.48.346.8.854.96 1.52.187.666.28 1.56.28 2.68v14.6zm-7.04-1.12c0 .346.04.586.12.72.08.106.28.16.6.16.347 0 .56-.054.64-.16.08-.134.12-.374.12-.72V13.44c0-.346-.04-.574-.12-.68-.08-.134-.293-.2-.64-.2-.32 0-.52.066-.6.2-.08.106-.12.334-.12.68V25.8zM38.298 0v8.72c.346-.48.773-.814 1.28-1 .533-.186 1.186-.28 1.96-.28s1.4.094 1.88.28c.48.16.84.426 1.08.8.266.374.44.88.52 1.52.106.614.16 1.374.16 2.28v14.6c0 .934-.054 1.72-.16 2.36-.08.614-.254 1.106-.52 1.48s-.654.64-1.16.8c-.507.16-1.16.24-1.96.24-.907 0-1.64-.094-2.2-.28-.56-.214-.987-.546-1.28-1v1.08h-5.32V0h5.72zm1.32 13.44c0-.32-.04-.546-.12-.68-.054-.134-.227-.2-.52-.2-.267 0-.467.054-.6.16-.107.08-.187.214-.24.4v13a.989.989 0 0 0 .24.44c.133.08.333.12.6.12.293 0 .466-.066.52-.2.08-.134.12-.36.12-.68V13.44zm14.189-9.28h-5.68V0h5.68v4.16zm0 27.44h-5.68V7.64h5.68V31.6zm16.264 0h-5.76V13.44c0-.32-.04-.546-.12-.68-.054-.134-.227-.2-.52-.2-.267 0-.467.054-.6.16-.107.08-.2.214-.28.4V31.6h-5.72V7.64h5.32v1.08c.293-.454.72-.774 1.28-.96.56-.214 1.293-.32 2.2-.32.8 0 1.466.08 2 .24.56.16 1 .426 1.32.8s.546.88.68 1.52c.133.614.2 1.386.2 2.32V31.6zm8.855 0h-5.8v-5.64h5.8v5.64zM104.573 0l-3.28 31.6h-8.16l-1.08-22.92h-.16l-1.32 22.92h-8.28L79.853 0h6.52l.68 22.16h.16L88.173 0h8l.68 22.16h.16l1-22.16h6.56z"/>
    </symbol>
    <symbol id="icon-product" viewBox="0 0 32 32">
      <path d="M30.222 23.112v7.11H17.778v-7.111h12.444zm0-21.334V16H17.778V1.778h12.444zM10.667 16h-8.89v14.222h8.89V16zm0-14.222v7.11h-8.89v-7.11h8.89zM17.777 0C16.797 0 16 .796 16 1.778V16c0 .982.796 1.778 1.778 1.778h12.444c.982 0 1.778-.796 1.778-1.778V1.778C32 .796 31.204 0 30.222 0H17.778zm0 21.333c-.981 0-1.777.796-1.777 1.778v7.111c0 .982.796 1.778 1.778 1.778h12.444c.982 0 1.778-.796 1.778-1.778v-7.11c0-.983-.796-1.779-1.778-1.779H17.778zM0 16c0-.982.796-1.778 1.778-1.778h8.889c.982 0 1.777.796 1.777 1.778v14.222c0 .982-.796 1.778-1.777 1.778h-8.89A1.778 1.778 0 0 1 0 30.222V16zM1.778 0C.796 0 0 .796 0 1.778v7.11c0 .983.796 1.779 1.778 1.779h8.889c.982 0 1.777-.796 1.777-1.778V1.778C12.444.796 11.648 0 10.667 0h-8.89z"/>
    </symbol>
  </defs>
</svg>